<svg xmlns="http://www.w3.org/2000/svg" width="34" height="35" viewBox="0 0 34 35" fill="white">
    <circle cx="17" cy="17" r="10" fill="white" />
    <path fill-rule="evenodd" clip-rule="evenodd"
        d="M34 17.5C34 26.8888 26.3888 34.5 17 34.5C7.61116 34.5 0 26.8888 0 17.5C0 8.11116 7.61116 0.5 17 0.5C26.3888 0.5 34 8.11116 34 17.5ZM17.0805 19.9162C20.2138 15.4852 20.3521 12.7998 17.0805 8.05556C13.7465 12.901 14.1762 15.4694 17.0805 19.9162ZM15.5914 25.6878C16.0895 20.2838 14.8665 17.889 9.66113 15.4162C9.19652 21.2795 10.8529 23.2889 15.5914 25.6878ZM18.5883 25.6878C18.0903 20.2839 19.3132 17.8891 24.5186 15.4162C24.9832 21.2795 23.3269 23.2889 18.5883 25.6878Z"
        fill="black" />
</svg>